<svg
    xmlns="http://www.w3.org/2000/svg"
    xmlns:xlink="http://www.w3.org/1999/xlink"
    width="180" height="180">
    <path fill-rule="evenodd"  fill="rgb(113, 191, 75)"
        d="M177.173,127.518 C175.564,129.134 173.609,129.943 171.298,129.943 L165.322,129.943 C159.976,148.627 132.497,163.200 98.317,165.072 C98.317,165.095 98.320,165.117 98.320,165.140 L98.320,171.474 C98.320,173.728 97.511,175.658 95.894,177.268 C94.278,178.877 92.311,179.681 89.993,179.681 C87.729,179.681 85.787,178.877 84.170,177.268 C82.553,175.658 81.745,173.728 81.745,171.474 L81.745,165.140 C81.745,165.083 81.751,165.029 81.752,164.973 C48.330,162.736 21.634,148.330 16.373,129.943 L8.686,129.943 C6.432,129.943 4.502,129.134 2.892,127.518 C1.283,125.901 0.478,123.934 0.478,121.616 C0.478,119.352 1.283,117.410 2.892,115.793 C4.502,114.177 6.432,113.368 8.686,113.368 L17.551,113.368 C22.001,103.142 33.167,94.377 48.312,88.608 L48.312,102.703 C37.585,107.987 30.958,115.258 30.958,123.286 C30.958,139.436 57.771,152.527 90.847,152.527 C123.924,152.527 150.737,139.436 150.737,123.286 C150.737,114.990 143.660,107.502 132.295,102.180 L132.295,88.202 C147.992,93.962 159.587,102.899 164.143,113.368 L171.298,113.368 C173.609,113.368 175.564,114.164 177.173,115.753 C178.782,117.345 179.588,119.299 179.588,121.616 C179.588,123.934 178.782,125.901 177.173,127.518 ZM140.613,65.483 C138.366,65.483 136.436,64.676 134.830,63.066 C133.225,61.456 132.421,59.499 132.421,57.187 L132.421,22.561 C132.421,20.255 133.225,18.308 134.830,16.723 C136.436,15.141 138.364,14.347 140.613,14.347 C142.915,14.347 144.871,15.141 146.477,16.723 C148.083,18.308 148.886,20.255 148.886,22.561 L148.886,57.187 C148.886,59.499 148.083,61.456 146.477,63.066 C144.871,64.676 142.915,65.483 140.613,65.483 ZM109.669,139.761 C108.063,141.371 106.107,142.176 103.807,142.176 C101.559,142.176 99.630,141.371 98.024,139.761 C96.418,138.150 95.615,136.190 95.615,133.881 L95.533,115.600 L112.078,115.601 L112.078,133.881 C112.078,136.190 111.275,138.150 109.669,139.761 ZM82.218,139.761 C80.612,141.371 78.657,142.176 76.356,142.176 C74.108,142.176 72.179,141.371 70.573,139.761 C68.967,138.150 68.164,136.190 68.164,133.881 L68.083,115.600 L84.627,115.601 L84.627,133.881 C84.627,136.190 83.824,138.150 82.218,139.761 ZM55.875,108.403 C54.162,106.687 53.306,104.595 53.306,102.123 L53.204,57.268 C53.204,54.795 54.059,52.702 55.771,50.985 C57.483,49.267 59.568,48.408 62.029,48.408 L67.967,48.408 L112.096,48.406 L118.114,48.406 C120.521,48.406 122.580,49.264 124.294,50.982 C126.005,52.700 126.860,54.793 126.860,57.266 L127.029,102.124 C127.029,104.596 126.174,106.689 124.462,108.406 C122.746,110.124 120.685,110.981 118.276,110.981 L62.139,110.979 C59.675,110.979 57.588,110.121 55.875,108.403 ZM90.440,84.556 C94.793,84.556 98.322,81.027 98.322,76.674 C98.322,72.321 94.793,68.792 90.440,68.792 C86.087,68.792 82.558,72.321 82.558,76.674 C82.558,81.027 86.087,84.556 90.440,84.556 ZM124.842,42.878 C118.117,42.878 103.010,42.878 90.557,42.878 C77.302,42.878 61.528,42.878 54.881,42.878 C54.921,42.878 52.603,42.925 53.094,40.180 C53.189,39.009 53.346,37.857 53.565,36.722 C54.330,32.770 55.850,29.038 58.127,25.523 C61.554,20.235 66.159,16.117 71.941,13.161 L66.239,2.614 C65.863,1.915 65.996,1.381 66.639,1.003 C67.335,0.680 67.870,0.843 68.245,1.485 L74.028,12.117 C79.114,9.861 84.496,8.732 90.172,8.732 C95.846,8.732 101.227,9.861 106.315,12.117 L112.098,1.485 C112.472,0.843 113.006,0.678 113.704,1.003 C114.346,1.380 114.479,1.915 114.104,2.614 L108.402,13.161 C114.130,16.117 118.708,20.235 122.134,25.523 C124.406,29.031 125.925,32.755 126.691,36.696 C126.917,37.861 127.076,39.045 127.173,40.248 C127.368,42.678 125.475,42.878 124.842,42.878 ZM75.433,24.074 C74.817,23.457 74.080,23.148 73.224,23.148 C72.367,23.148 71.644,23.457 71.056,24.074 C70.467,24.692 70.173,25.429 70.173,26.288 C70.173,27.150 70.467,27.885 71.056,28.502 C71.644,29.122 72.366,29.430 73.224,29.430 C74.080,29.430 74.817,29.122 75.433,28.502 C76.047,27.885 76.356,27.148 76.358,26.288 C76.358,25.429 76.048,24.694 75.433,24.074 ZM109.284,24.074 C108.694,23.457 107.973,23.148 107.117,23.148 C106.259,23.148 105.522,23.457 104.907,24.074 C104.290,24.692 103.983,25.429 103.983,26.288 C103.983,27.150 104.290,27.885 104.907,28.502 C105.522,29.122 106.259,29.430 107.117,29.430 C107.971,29.430 108.694,29.122 109.284,28.502 C109.873,27.885 110.167,27.148 110.167,26.288 C110.167,25.429 109.873,24.694 109.284,24.074 ZM39.726,65.481 C37.424,65.481 35.470,64.675 33.864,63.064 C32.258,61.453 31.455,59.497 31.455,57.183 L31.455,22.549 C31.455,20.293 32.258,18.361 33.864,16.749 C35.470,15.139 37.424,14.333 39.726,14.333 C41.976,14.333 43.904,15.139 45.510,16.749 C47.116,18.361 47.919,20.293 47.919,22.549 L47.919,57.183 C47.919,59.497 47.129,61.453 45.550,63.064 C43.969,64.675 42.028,65.481 39.726,65.481 Z"/>
</svg>
